<?xml version="1.0" encoding="utf-8"?>
<!-- Generated by Mocodo 4.3.2 -->
<svg width="601" height="395" viewBox="0 0 601 395" xmlns="http://www.w3.org/2000/svg">
<rect x="0" y="0" width="601" height="395" fill="#f7f7f7" stroke="none" stroke-width="0"/>

<!-- Association CREER -->
<g>
	<line x1="139" y1="51" x2="37" y2="51" stroke="#de77ae" stroke-width="2"/>
	<line x1="139" y1="252" x2="37" y2="51" stroke="#de77ae" stroke-width="2"/>
	<g>
		<path d="M51 26 a14 14 90 0 1 14 14 V51 h-56 V40 a14 14 90 0 1 14 -14" fill="#f1b6da" stroke="#f1b6da" stroke-width="0"/>
		<path d="M65 51 v11 a14 14 90 0 1 -14 14 H23 a14 14 90 0 1 -14 -14 V51 H56" fill="#fde0ef" stroke="#fde0ef" stroke-width="0"/>
		<rect x="9" y="26" width="56" height="50" fill="none" rx="14" stroke="#de77ae" stroke-width="2"/>
		<line x1="9" y1="51" x2="65" y2="51" stroke="#de77ae" stroke-width="1"/>
		<text x="17" y="43.75" fill="#000000" font-family="Verdana" font-size="12">CREER</text>
	</g>
	<text x="71" y="68" fill="#4d9221" font-family="Verdana" font-size="12">1,1</text>
	<text x="110.09" y="185" fill="#4d9221" font-family="Verdana" font-size="12">0,N</text>
</g>

<!-- Association A -->
<g>
	<line x1="361" y1="143" x2="266" y2="51" stroke="#de77ae" stroke-width="2"/>
	<line x1="139" y1="51" x2="266" y2="51" stroke="#de77ae" stroke-width="2"/>
	<g>
		<path d="M264 26 a14 14 90 0 1 14 14 V51 h-24 V40 a14 14 90 0 1 14 -14" fill="#f1b6da" stroke="#f1b6da" stroke-width="0"/>
		<path d="M278 51 v11 a14 14 90 0 1 -14 14 H268 a14 14 90 0 1 -14 -14 V51 H24" fill="#fde0ef" stroke="#fde0ef" stroke-width="0"/>
		<rect x="254" y="26" width="24" height="50" fill="none" rx="14" stroke="#de77ae" stroke-width="2"/>
		<line x1="254" y1="51" x2="278" y2="51" stroke="#de77ae" stroke-width="1"/>
		<text x="262" y="43.75" fill="#000000" font-family="Verdana" font-size="12">A</text>
	</g>
	<text x="295" y="115.32" fill="#4d9221" font-family="Verdana" font-size="12">0,N</text>
	<text x="186" y="43" fill="#4d9221" font-family="Verdana" font-size="12">1,1</text>
</g>

<!-- Association EDITE -->
<g>
	<line x1="469" y1="51" x2="361" y2="51" stroke="#de77ae" stroke-width="2"/>
	<line x1="361" y1="143" x2="361" y2="51" stroke="#de77ae" stroke-width="2"/>
	<g>
		<path d="M373 26 a14 14 90 0 1 14 14 V51 h-52 V40 a14 14 90 0 1 14 -14" fill="#f1b6da" stroke="#f1b6da" stroke-width="0"/>
		<path d="M387 51 v11 a14 14 90 0 1 -14 14 H349 a14 14 90 0 1 -14 -14 V51 H52" fill="#fde0ef" stroke="#fde0ef" stroke-width="0"/>
		<rect x="335" y="26" width="52" height="50" fill="none" rx="14" stroke="#de77ae" stroke-width="2"/>
		<line x1="335" y1="51" x2="387" y2="51" stroke="#de77ae" stroke-width="1"/>
		<text x="342" y="43.75" fill="#000000" font-family="Verdana" font-size="12">EDITE</text>
	</g>
	<text x="409" y="68" fill="#4d9221" font-family="Verdana" font-size="12">1,N</text>
	<text x="366" y="93" fill="#4d9221" font-family="Verdana" font-size="12">1,1</text>
</g>

<!-- Association PARTICIPE -->
<g>
	<line x1="139" y1="252" x2="139" y2="143" stroke="#de77ae" stroke-width="2"/>
	<line x1="139" y1="51" x2="139" y2="143" stroke="#de77ae" stroke-width="2"/>
	<g>
		<path d="M172 118 a14 14 90 0 1 14 14 V143 h-94 V132 a14 14 90 0 1 14 -14" fill="#f1b6da" stroke="#f1b6da" stroke-width="0"/>
		<path d="M186 143 v11 a14 14 90 0 1 -14 14 H106 a14 14 90 0 1 -14 -14 V143 H94" fill="#fde0ef" stroke="#fde0ef" stroke-width="0"/>
		<rect x="92" y="118" width="94" height="50" fill="none" rx="14" stroke="#de77ae" stroke-width="2"/>
		<line x1="92" y1="143" x2="186" y2="143" stroke="#de77ae" stroke-width="1"/>
		<text x="107" y="135.75" fill="#000000" font-family="Verdana" font-size="12">PARTICIPE</text>
		<text x="99" y="160.8" fill="#000000" font-family="Verdana" font-size="12">preuve video</text>
	</g>
	<text x="144" y="185" fill="#4d9221" font-family="Verdana" font-size="12">0,N</text>
	<text x="112" y="110" fill="#4d9221" font-family="Verdana" font-size="12">0,N</text>
</g>

<!-- Association AIME -->
<g>
	<line x1="139" y1="252" x2="266" y2="143" stroke="#de77ae" stroke-width="2"/>
	<line x1="139" y1="51" x2="266" y2="143" stroke="#de77ae" stroke-width="2"/>
	<g>
		<path d="M275 118 a14 14 90 0 1 14 14 V143 h-46 V132 a14 14 90 0 1 14 -14" fill="#f1b6da" stroke="#f1b6da" stroke-width="0"/>
		<path d="M289 143 v11 a14 14 90 0 1 -14 14 H257 a14 14 90 0 1 -14 -14 V143 H46" fill="#fde0ef" stroke="#fde0ef" stroke-width="0"/>
		<rect x="243" y="118" width="46" height="50" fill="none" rx="14" stroke="#de77ae" stroke-width="2"/>
		<line x1="243" y1="143" x2="289" y2="143" stroke="#de77ae" stroke-width="1"/>
		<text x="250" y="135.75" fill="#000000" font-family="Verdana" font-size="12">AIME</text>
	</g>
	<text x="204" y="211.19" fill="#4d9221" font-family="Verdana" font-size="12">0,N</text>
	<text x="186" y="78.92" fill="#4d9221" font-family="Verdana" font-size="12">0,N</text>
</g>

<!-- Association POSSEDE -->
<g>
	<line x1="565" y1="143" x2="469" y2="143" stroke="#de77ae" stroke-width="2"/>
	<line x1="361" y1="143" x2="469" y2="143" stroke="#de77ae" stroke-width="2"/>
	<g>
		<path d="M492 118 a14 14 90 0 1 14 14 V143 h-74 V132 a14 14 90 0 1 14 -14" fill="#f1b6da" stroke="#f1b6da" stroke-width="0"/>
		<path d="M506 143 v11 a14 14 90 0 1 -14 14 H446 a14 14 90 0 1 -14 -14 V143 H74" fill="#fde0ef" stroke="#fde0ef" stroke-width="0"/>
		<rect x="432" y="118" width="74" height="50" fill="none" rx="14" stroke="#de77ae" stroke-width="2"/>
		<line x1="432" y1="143" x2="506" y2="143" stroke="#de77ae" stroke-width="1"/>
		<text x="440" y="135.75" fill="#000000" font-family="Verdana" font-size="12">POSSEDE</text>
	</g>
	<text x="511" y="160" fill="#4d9221" font-family="Verdana" font-size="12">1,N</text>
	<text x="405" y="160" fill="#4d9221" font-family="Verdana" font-size="12">1,1</text>
</g>

<!-- Association PREFERE -->
<g>
	<line x1="139" y1="252" x2="266" y2="252" stroke="#de77ae" stroke-width="2"/>
	<line x1="361" y1="143" x2="266" y2="252" stroke="#de77ae" stroke-width="2"/>
	<g>
		<path d="M287 227 a14 14 90 0 1 14 14 V252 h-70 V241 a14 14 90 0 1 14 -14" fill="#f1b6da" stroke="#f1b6da" stroke-width="0"/>
		<path d="M301 252 v11 a14 14 90 0 1 -14 14 H245 a14 14 90 0 1 -14 -14 V252 H70" fill="#fde0ef" stroke="#fde0ef" stroke-width="0"/>
		<rect x="231" y="227" width="70" height="50" fill="none" rx="14" stroke="#de77ae" stroke-width="2"/>
		<line x1="231" y1="252" x2="301" y2="252" stroke="#de77ae" stroke-width="1"/>
		<text x="239" y="244.75" fill="#000000" font-family="Verdana" font-size="12">PREFERE</text>
	</g>
	<text x="204" y="269" fill="#4d9221" font-family="Verdana" font-size="12">0,N</text>
	<text x="323.01" y="202" fill="#4d9221" font-family="Verdana" font-size="12">0,N</text>
</g>

<!-- Association OPERE -->
<g>
	<line x1="361" y1="143" x2="361" y2="252" stroke="#de77ae" stroke-width="2"/>
	<line x1="469" y1="252" x2="361" y2="252" stroke="#de77ae" stroke-width="2"/>
	<g>
		<path d="M375 227 a14 14 90 0 1 14 14 V252 h-56 V241 a14 14 90 0 1 14 -14" fill="#f1b6da" stroke="#f1b6da" stroke-width="0"/>
		<path d="M389 252 v11 a14 14 90 0 1 -14 14 H347 a14 14 90 0 1 -14 -14 V252 H56" fill="#fde0ef" stroke="#fde0ef" stroke-width="0"/>
		<rect x="333" y="227" width="56" height="50" fill="none" rx="14" stroke="#de77ae" stroke-width="2"/>
		<line x1="333" y1="252" x2="389" y2="252" stroke="#de77ae" stroke-width="1"/>
		<text x="341" y="244.75" fill="#000000" font-family="Verdana" font-size="12">OPERE</text>
	</g>
	<text x="366" y="202" fill="#4d9221" font-family="Verdana" font-size="12">1,N</text>
	<text x="396" y="269" fill="#4d9221" font-family="Verdana" font-size="12">1,N</text>
</g>

<!-- Association APPARTIENT_A -->
<g>
	<line x1="139" y1="252" x2="139" y2="361" stroke="#de77ae" stroke-width="2"/>
	<line x1="266" y1="361" x2="139" y2="361" stroke="#de77ae" stroke-width="2"/>
	<g>
		<path d="M177 336 a14 14 90 0 1 14 14 V361 h-104 V350 a14 14 90 0 1 14 -14" fill="#f1b6da" stroke="#f1b6da" stroke-width="0"/>
		<path d="M191 361 v11 a14 14 90 0 1 -14 14 H101 a14 14 90 0 1 -14 -14 V361 H104" fill="#fde0ef" stroke="#fde0ef" stroke-width="0"/>
		<rect x="87" y="336" width="104" height="50" fill="none" rx="14" stroke="#de77ae" stroke-width="2"/>
		<line x1="87" y1="361" x2="191" y2="361" stroke="#de77ae" stroke-width="1"/>
		<text x="95" y="353.75" fill="#000000" font-family="Verdana" font-size="12">APPARTIENT A</text>
	</g>
	<text x="144" y="328" fill="#4d9221" font-family="Verdana" font-size="12">1,1</text>
	<text x="217" y="378" fill="#4d9221" font-family="Verdana" font-size="12">1,N</text>
</g>

<!-- Entity CHALLENGE -->
<g>
	<g>
		<rect x="97" y="9" width="84" height="25" fill="#b8e186" stroke="none" stroke-width="0" opacity="1"/>
		<rect x="97" y="34" width="84" height="59" fill="#e6f5d0" stroke="none" stroke-width="0" opacity="1"/>
		<rect x="97" y="9" width="84" height="84" fill="none" stroke="#7fbc41" stroke-width="2" opacity="1"/>
		<line x1="97" y1="34" x2="181" y2="34" stroke="#7fbc41" stroke-width="1"/>
	</g>
	<text x="102" y="26.75" fill="#000000" font-family="Verdana" font-size="12">CHALLENGE</text>
	<text x="102" y="51.8" fill="#000000" font-family="Verdana" font-size="12">nom</text>
	<line x1="102" y1="54" x2="130" y2="54" stroke="#000000" stroke-width="1"/>
	<text x="102" y="68.8" fill="#000000" font-family="Verdana" font-size="12">description</text>
	<text x="102" y="85.8" fill="#000000" font-family="Verdana" font-size="12">auteur</text>
</g>

<!-- Entity EDITEUR -->
<g>
	<g>
		<rect x="436" y="26" width="66" height="25" fill="#b8e186" stroke="none" stroke-width="0" opacity="1"/>
		<rect x="436" y="51" width="66" height="25" fill="#e6f5d0" stroke="none" stroke-width="0" opacity="1"/>
		<rect x="436" y="26" width="66" height="50" fill="none" stroke="#7fbc41" stroke-width="2" opacity="1"/>
		<line x1="436" y1="51" x2="502" y2="51" stroke="#7fbc41" stroke-width="1"/>
	</g>
	<text x="442" y="43.75" fill="#000000" font-family="Verdana" font-size="12">EDITEUR</text>
	<text x="441" y="68.8" fill="#000000" font-family="Verdana" font-size="12">nom</text>
	<line x1="441" y1="71" x2="469" y2="71" stroke="#000000" stroke-width="1"/>
</g>

<!-- Entity JEU -->
<g>
	<g>
		<rect x="322" y="101" width="78" height="25" fill="#b8e186" stroke="none" stroke-width="0" opacity="1"/>
		<rect x="322" y="126" width="78" height="59" fill="#e6f5d0" stroke="none" stroke-width="0" opacity="1"/>
		<rect x="322" y="101" width="78" height="84" fill="none" stroke="#7fbc41" stroke-width="2" opacity="1"/>
		<line x1="322" y1="126" x2="400" y2="126" stroke="#7fbc41" stroke-width="1"/>
	</g>
	<text x="350" y="118.75" fill="#000000" font-family="Verdana" font-size="12">JEU</text>
	<text x="327" y="143.8" fill="#000000" font-family="Verdana" font-size="12">nom</text>
	<line x1="327" y1="146" x2="355" y2="146" stroke="#000000" stroke-width="1"/>
	<text x="327" y="160.8" fill="#000000" font-family="Verdana" font-size="12">description</text>
	<text x="327" y="177.8" fill="#000000" font-family="Verdana" font-size="12">image</text>
</g>

<!-- Entity GENRE -->
<g>
	<g>
		<rect x="538" y="118" width="54" height="25" fill="#b8e186" stroke="none" stroke-width="0" opacity="1"/>
		<rect x="538" y="143" width="54" height="25" fill="#e6f5d0" stroke="none" stroke-width="0" opacity="1"/>
		<rect x="538" y="118" width="54" height="50" fill="none" stroke="#7fbc41" stroke-width="2" opacity="1"/>
		<line x1="538" y1="143" x2="592" y2="143" stroke="#7fbc41" stroke-width="1"/>
	</g>
	<text x="544" y="135.75" fill="#000000" font-family="Verdana" font-size="12">GENRE</text>
	<text x="543" y="160.8" fill="#000000" font-family="Verdana" font-size="12">nom</text>
	<line x1="543" y1="163" x2="571" y2="163" stroke="#000000" stroke-width="1"/>
</g>

<!-- Entity UTILISATEUR -->
<g>
	<g>
		<rect x="79" y="193" width="120" height="25" fill="#b8e186" stroke="none" stroke-width="0" opacity="1"/>
		<rect x="79" y="218" width="120" height="93" fill="#e6f5d0" stroke="none" stroke-width="0" opacity="1"/>
		<rect x="79" y="193" width="120" height="118" fill="none" stroke="#7fbc41" stroke-width="2" opacity="1"/>
		<line x1="79" y1="218" x2="199" y2="218" stroke="#7fbc41" stroke-width="1"/>
	</g>
	<text x="98" y="210.75" fill="#000000" font-family="Verdana" font-size="12">UTILISATEUR</text>
	<text x="84" y="235.8" fill="#000000" font-family="Verdana" font-size="12">nom</text>
	<line x1="84" y1="238" x2="112" y2="238" stroke="#000000" stroke-width="1"/>
	<text x="84" y="252.8" fill="#000000" font-family="Verdana" font-size="12">prenom</text>
	<text x="84" y="269.8" fill="#000000" font-family="Verdana" font-size="12">email</text>
	<text x="84" y="286.8" fill="#000000" font-family="Verdana" font-size="12">mot de passe</text>
	<text x="84" y="303.8" fill="#000000" font-family="Verdana" font-size="12">date de naissance</text>
</g>

<!-- Entity PLATEFORME -->
<g>
	<g>
		<rect x="423" y="227" width="92" height="25" fill="#b8e186" stroke="none" stroke-width="0" opacity="1"/>
		<rect x="423" y="252" width="92" height="25" fill="#e6f5d0" stroke="none" stroke-width="0" opacity="1"/>
		<rect x="423" y="227" width="92" height="50" fill="none" stroke="#7fbc41" stroke-width="2" opacity="1"/>
		<line x1="423" y1="252" x2="515" y2="252" stroke="#7fbc41" stroke-width="1"/>
	</g>
	<text x="429" y="244.75" fill="#000000" font-family="Verdana" font-size="12">PLATEFORME</text>
	<text x="428" y="269.8" fill="#000000" font-family="Verdana" font-size="12">nom</text>
	<line x1="428" y1="272" x2="456" y2="272" stroke="#000000" stroke-width="1"/>
</g>

<!-- Entity ROLE -->
<g>
	<g>
		<rect x="244" y="336" width="44" height="25" fill="#b8e186" stroke="none" stroke-width="0" opacity="1"/>
		<rect x="244" y="361" width="44" height="25" fill="#e6f5d0" stroke="none" stroke-width="0" opacity="1"/>
		<rect x="244" y="336" width="44" height="50" fill="none" stroke="#7fbc41" stroke-width="2" opacity="1"/>
		<line x1="244" y1="361" x2="288" y2="361" stroke="#7fbc41" stroke-width="1"/>
	</g>
	<text x="250" y="353.75" fill="#000000" font-family="Verdana" font-size="12">ROLE</text>
	<text x="249" y="378.8" fill="#000000" font-family="Verdana" font-size="12">nom</text>
	<line x1="249" y1="381" x2="277" y2="381" stroke="#000000" stroke-width="1"/>
</g>
</svg>