<?xml version="1.0" encoding="utf-8"?>
<!-- Generated by Mocodo 4.3.2 -->
<svg width="478" height="422" viewBox="0 0 478 422" xmlns="http://www.w3.org/2000/svg">
<rect x="0" y="0" width="478" height="422" fill="#ffffbf" stroke="none" stroke-width="0"/>

<!-- Association AIME -->
<g>
	<line x1="273" y1="118" x2="153" y2="34" stroke="#f46d43" stroke-width="2"/>
	<line x1="51" y1="118" x2="153" y2="34" stroke="#f46d43" stroke-width="2"/>
	<g>
		<path d="M162 9 a14 14 90 0 1 14 14 V34 h-46 V23 a14 14 90 0 1 14 -14" fill="#fdae61" stroke="#fdae61" stroke-width="0"/>
		<path d="M176 34 v11 a14 14 90 0 1 -14 14 H144 a14 14 90 0 1 -14 -14 V34 H46" fill="#fee090" stroke="#fee090" stroke-width="0"/>
		<rect x="130" y="9" width="46" height="50" fill="none" rx="14" stroke="#f46d43" stroke-width="2"/>
		<line x1="130" y1="34" x2="176" y2="34" stroke="#f46d43" stroke-width="1"/>
		<text x="137" y="26.75" fill="#000000" font-family="Verdana" font-size="12">AIME</text>
	</g>
	<text x="186" y="87.67" fill="#4575b4" font-family="Verdana" font-size="12">0,N</text>
	<text x="98" y="94.3" fill="#4575b4" font-family="Verdana" font-size="12">0,N</text>
</g>

<!-- Association CREER -->
<g>
	<line x1="51" y1="118" x2="153" y2="118" stroke="#f46d43" stroke-width="2"/>
	<line x1="273" y1="118" x2="153" y2="118" stroke="#f46d43" stroke-width="2"/>
	<g>
		<path d="M167 93 a14 14 90 0 1 14 14 V118 h-56 V107 a14 14 90 0 1 14 -14" fill="#fdae61" stroke="#fdae61" stroke-width="0"/>
		<path d="M181 118 v11 a14 14 90 0 1 -14 14 H139 a14 14 90 0 1 -14 -14 V118 H56" fill="#fee090" stroke="#fee090" stroke-width="0"/>
		<rect x="125" y="93" width="56" height="50" fill="none" rx="14" stroke="#f46d43" stroke-width="2"/>
		<line x1="125" y1="118" x2="181" y2="118" stroke="#f46d43" stroke-width="1"/>
		<text x="133" y="110.75" fill="#000000" font-family="Verdana" font-size="12">CREER</text>
	</g>
	<text x="98" y="135" fill="#4575b4" font-family="Verdana" font-size="12">1,1</text>
	<text x="186" y="135" fill="#4575b4" font-family="Verdana" font-size="12">0,N</text>
</g>

<!-- Association APPARTIENT_A -->
<g>
	<line x1="273" y1="118" x2="417" y2="118" stroke="#f46d43" stroke-width="2"/>
	<line x1="417" y1="227" x2="417" y2="118" stroke="#f46d43" stroke-width="2"/>
	<g>
		<path d="M455 93 a14 14 90 0 1 14 14 V118 h-104 V107 a14 14 90 0 1 14 -14" fill="#fdae61" stroke="#fdae61" stroke-width="0"/>
		<path d="M469 118 v11 a14 14 90 0 1 -14 14 H379 a14 14 90 0 1 -14 -14 V118 H104" fill="#fee090" stroke="#fee090" stroke-width="0"/>
		<rect x="365" y="93" width="104" height="50" fill="none" rx="14" stroke="#f46d43" stroke-width="2"/>
		<line x1="365" y1="118" x2="469" y2="118" stroke="#f46d43" stroke-width="1"/>
		<text x="373" y="110.75" fill="#000000" font-family="Verdana" font-size="12">APPARTIENT A</text>
	</g>
	<text x="338" y="135" fill="#4575b4" font-family="Verdana" font-size="12">1,1</text>
	<text x="422" y="194" fill="#4575b4" font-family="Verdana" font-size="12">1,N</text>
</g>

<!-- Association A -->
<g>
	<line x1="153" y1="345" x2="51" y2="227" stroke="#f46d43" stroke-width="2"/>
	<line x1="51" y1="118" x2="51" y2="227" stroke="#f46d43" stroke-width="2"/>
	<g>
		<path d="M49 202 a14 14 90 0 1 14 14 V227 h-24 V216 a14 14 90 0 1 14 -14" fill="#fdae61" stroke="#fdae61" stroke-width="0"/>
		<path d="M63 227 v11 a14 14 90 0 1 -14 14 H53 a14 14 90 0 1 -14 -14 V227 H24" fill="#fee090" stroke="#fee090" stroke-width="0"/>
		<rect x="39" y="202" width="24" height="50" fill="none" rx="14" stroke="#f46d43" stroke-width="2"/>
		<line x1="39" y1="227" x2="63" y2="227" stroke="#f46d43" stroke-width="1"/>
		<text x="47" y="219.75" fill="#000000" font-family="Verdana" font-size="12">A</text>
	</g>
	<text x="87" y="310.54" fill="#4575b4" font-family="Verdana" font-size="12">0,N</text>
	<text x="25" y="177" fill="#4575b4" font-family="Verdana" font-size="12">1,1</text>
</g>

<!-- Association PARTICIPE -->
<g>
	<line x1="273" y1="118" x2="153" y2="227" stroke="#f46d43" stroke-width="2"/>
	<line x1="51" y1="118" x2="153" y2="227" stroke="#f46d43" stroke-width="2"/>
	<g>
		<path d="M186 202 a14 14 90 0 1 14 14 V227 h-94 V216 a14 14 90 0 1 14 -14" fill="#fdae61" stroke="#fdae61" stroke-width="0"/>
		<path d="M200 227 v11 a14 14 90 0 1 -14 14 H120 a14 14 90 0 1 -14 -14 V227 H94" fill="#fee090" stroke="#fee090" stroke-width="0"/>
		<rect x="106" y="202" width="94" height="50" fill="none" rx="14" stroke="#f46d43" stroke-width="2"/>
		<line x1="106" y1="227" x2="200" y2="227" stroke="#f46d43" stroke-width="1"/>
		<text x="121" y="219.75" fill="#000000" font-family="Verdana" font-size="12">PARTICIPE</text>
		<text x="113" y="244.8" fill="#000000" font-family="Verdana" font-size="12">preuve video</text>
	</g>
	<text x="186" y="171.09" fill="#4575b4" font-family="Verdana" font-size="12">0,N</text>
	<text x="70.04" y="177" fill="#4575b4" font-family="Verdana" font-size="12">0,N</text>
</g>

<!-- Association PREFERE -->
<g>
	<line x1="273" y1="118" x2="273" y2="227" stroke="#f46d43" stroke-width="2"/>
	<line x1="153" y1="345" x2="273" y2="227" stroke="#f46d43" stroke-width="2"/>
	<g>
		<path d="M294 202 a14 14 90 0 1 14 14 V227 h-70 V216 a14 14 90 0 1 14 -14" fill="#fdae61" stroke="#fdae61" stroke-width="0"/>
		<path d="M308 227 v11 a14 14 90 0 1 -14 14 H252 a14 14 90 0 1 -14 -14 V227 H70" fill="#fee090" stroke="#fee090" stroke-width="0"/>
		<rect x="238" y="202" width="70" height="50" fill="none" rx="14" stroke="#f46d43" stroke-width="2"/>
		<line x1="238" y1="227" x2="308" y2="227" stroke="#f46d43" stroke-width="1"/>
		<text x="246" y="219.75" fill="#000000" font-family="Verdana" font-size="12">PREFERE</text>
	</g>
	<text x="278" y="194" fill="#4575b4" font-family="Verdana" font-size="12">0,N</text>
	<text x="197" y="316.66" fill="#4575b4" font-family="Verdana" font-size="12">0,N</text>
</g>

<!-- Entity CHALLENGE -->
<g>
	<g>
		<rect x="9" y="76" width="84" height="25" fill="#abd9e9" stroke="none" stroke-width="0" opacity="1"/>
		<rect x="9" y="101" width="84" height="59" fill="#e0f3f8" stroke="none" stroke-width="0" opacity="1"/>
		<rect x="9" y="76" width="84" height="84" fill="none" stroke="#74add1" stroke-width="2" opacity="1"/>
		<line x1="9" y1="101" x2="93" y2="101" stroke="#74add1" stroke-width="1"/>
	</g>
	<text x="14" y="93.75" fill="#000000" font-family="Verdana" font-size="12">CHALLENGE</text>
	<text x="14" y="118.8" fill="#000000" font-family="Verdana" font-size="12">nom</text>
	<line x1="14" y1="121" x2="42" y2="121" stroke="#000000" stroke-width="1"/>
	<text x="14" y="135.8" fill="#000000" font-family="Verdana" font-size="12">description</text>
	<text x="14" y="152.8" fill="#000000" font-family="Verdana" font-size="12">auteur</text>
</g>

<!-- Entity UTILISATEUR -->
<g>
	<g>
		<rect x="213" y="59" width="120" height="25" fill="#abd9e9" stroke="none" stroke-width="0" opacity="1"/>
		<rect x="213" y="84" width="120" height="93" fill="#e0f3f8" stroke="none" stroke-width="0" opacity="1"/>
		<rect x="213" y="59" width="120" height="118" fill="none" stroke="#74add1" stroke-width="2" opacity="1"/>
		<line x1="213" y1="84" x2="333" y2="84" stroke="#74add1" stroke-width="1"/>
	</g>
	<text x="232" y="76.75" fill="#000000" font-family="Verdana" font-size="12">UTILISATEUR</text>
	<text x="218" y="101.8" fill="#000000" font-family="Verdana" font-size="12">nom</text>
	<line x1="218" y1="104" x2="246" y2="104" stroke="#000000" stroke-width="1"/>
	<text x="218" y="118.8" fill="#000000" font-family="Verdana" font-size="12">prenom</text>
	<text x="218" y="135.8" fill="#000000" font-family="Verdana" font-size="12">email</text>
	<text x="218" y="152.8" fill="#000000" font-family="Verdana" font-size="12">mot de passe</text>
	<text x="218" y="169.8" fill="#000000" font-family="Verdana" font-size="12">date de naissance</text>
</g>

<!-- Entity ROLE -->
<g>
	<g>
		<rect x="395" y="202" width="44" height="25" fill="#abd9e9" stroke="none" stroke-width="0" opacity="1"/>
		<rect x="395" y="227" width="44" height="25" fill="#e0f3f8" stroke="none" stroke-width="0" opacity="1"/>
		<rect x="395" y="202" width="44" height="50" fill="none" stroke="#74add1" stroke-width="2" opacity="1"/>
		<line x1="395" y1="227" x2="439" y2="227" stroke="#74add1" stroke-width="1"/>
	</g>
	<text x="401" y="219.75" fill="#000000" font-family="Verdana" font-size="12">ROLE</text>
	<text x="400" y="244.8" fill="#000000" font-family="Verdana" font-size="12">nom</text>
	<line x1="400" y1="247" x2="428" y2="247" stroke="#000000" stroke-width="1"/>
</g>

<!-- Entity JEU -->
<g>
	<g>
		<rect x="114" y="277" width="78" height="25" fill="#abd9e9" stroke="none" stroke-width="0" opacity="1"/>
		<rect x="114" y="302" width="78" height="111" fill="#e0f3f8" stroke="none" stroke-width="0" opacity="1"/>
		<rect x="114" y="277" width="78" height="136" fill="none" stroke="#74add1" stroke-width="2" opacity="1"/>
		<line x1="114" y1="302" x2="192" y2="302" stroke="#74add1" stroke-width="1"/>
	</g>
	<text x="142" y="294.75" fill="#000000" font-family="Verdana" font-size="12">JEU</text>
	<text x="119" y="319.8" fill="#000000" font-family="Verdana" font-size="12">nom</text>
	<line x1="119" y1="322" x2="147" y2="322" stroke="#000000" stroke-width="1"/>
	<text x="119" y="336.8" fill="#000000" font-family="Verdana" font-size="12">description</text>
	<text x="119" y="353.8" fill="#000000" font-family="Verdana" font-size="12">categorie</text>
	<text x="119" y="370.8" fill="#000000" font-family="Verdana" font-size="12">image</text>
	<text x="119" y="387.8" fill="#000000" font-family="Verdana" font-size="12">plateforme</text>
	<text x="119" y="404.8" fill="#000000" font-family="Verdana" font-size="12">editeur</text>
</g>
</svg>